<svg width="100" height="100" viewBox="0 0 100 100" fill="none" xmlns="http://www.w3.org/2000/svg">
  <rect width="100" height="100" rx="20" fill="#f59e0b"/>
  <path d="M30 35H45C50 35 53 37 53 41C53 45 50 47 45 47H30V35Z" stroke="white" stroke-width="6" stroke-linecap="round" stroke-linejoin="round"/>
  <path d="M30 47H45L55 65" stroke="white" stroke-width="6" stroke-linecap="round" stroke-linejoin="round"/>
  <path d="M30 35V65" stroke="white" stroke-width="6" stroke-linecap="round" stroke-linejoin="round"/>
  <path d="M65 35C75 35 75 45 65 50C55 55 55 65 65 65" stroke="white" stroke-width="6" stroke-linecap="round" stroke-linejoin="round"/>
  <path d="M80 35L80 65M80 50L90 35M80 50L90 65" stroke="white" stroke-width="6" stroke-linecap="round" stroke-linejoin="round" opacity="0.8"/>
  <path d="M40 20C45 15 55 15 60 20" stroke="white" stroke-width="4" stroke-linecap="round" opacity="0.6"/>
</svg>
